<svg xmlns="http://www.w3.org/2000/svg" version="1.1" xmlns:xlink="http://www.w3.org/1999/xlink" xmlns:svgjs="http://svgjs.com/svgjs" width="1536" height="864" preserveAspectRatio="none" viewBox="0 0 1536 864"><g mask="url(&quot;#SvgjsMask1027&quot;)" fill="none"><rect width="1536" height="864" x="0" y="0" fill="rgba(241, 228, 205, 1)"></rect><path d="M1296 163.32C1278.31 163.32 1262.25 186.38 1262.25 216C1262.25 302.72 1277.97 396 1296 396C1314.13 396 1334.57 301.88 1334.57 216C1334.57 185.54 1314.47 163.32 1296 163.32" stroke="rgba(255, 103, 102, 0.3)" stroke-width="2"></path><path d="M45.29 432C45.29 404.65 7.04 409.43 0 375.84C-15.6 301.43 0 295.92 0 216C0 108 -54 54 0 0C54 -54 108 0 216 0C324 0 324 0 432 0C540 0 540 0 648 0C756 0 756 0 864 0C972 0 972 0 1080 0C1188 0 1188 0 1296 0C1404 0 1404 0 1512 0C1620 0 1674 -54 1728 0C1782 54 1728 108 1728 216C1728 324 1728 324 1728 432C1728 438 1732.62 440.34 1728 444C1624.62 525.9 1621.01 600.96 1512 603.12C1405.01 605.24 1370.88 439.85 1296 452.57C1238.74 462.29 1264.26 548.99 1247.72 648C1229.89 754.71 1277.22 799.67 1227.27 864C1193.36 907.67 1153.64 864 1080 864C972 864 972 864 864 864C775.14 864 727.74 912.74 686.28 864C635.86 804.74 695.13 752.48 680.24 648C675.99 618.14 675.59 601.76 648 595.32C551.47 572.79 539.92 594.63 432 590.05C323.92 585.46 314.63 557.43 216 576.99C168.51 586.41 139.76 610.14 139.76 648C139.76 691.12 172.28 699.31 216 738.95C291.4 807.31 378 829.1 378 864C378 891.63 297 864 216 864C108 864 54 918 0 864C-54 810 0 756 0 648C0 564.63 -16.16 558.33 0 481.26C6.49 450.33 45.29 457.36 45.29 432" stroke="rgba(255, 103, 102, 0.3)" stroke-width="2"></path><path d="M0 63.53C28.38 63.53 103.68 153.28 103.68 216C103.68 255.43 35.82 267.84 0 267.84C-16.02 267.84 0 241.92 0 216C0 139.76 -23.46 63.53 0 63.53" stroke="rgba(255, 103, 102, 0.3)" stroke-width="2"></path><path d="M216 68.21C156.1 35.91 98.18 18.28 98.18 0C98.18 -15.82 157.09 0 216 0C324 0 324 0 432 0C509.14 0 586.29 -35.48 586.29 0C586.29 54.52 523.39 163.17 432 180C338.24 197.27 323.01 125.91 216 68.21" stroke="rgba(255, 103, 102, 0.3)" stroke-width="2"></path><path d="M864 126C802.16 60.28 734.4 36.69 734.4 0C734.4 -26.31 799.2 0 864 0C972 0 972 0 1080 0C1188 0 1188 0 1296 0C1404 0 1404 0 1512 0C1585.06 0 1590.8 -16.83 1658.12 0C1698.8 10.17 1715.67 15.9 1728 54C1750.61 123.9 1728 135 1728 216C1728 278.52 1749.57 287.14 1728 341.05C1706.37 395.14 1688.36 390.45 1641.6 432C1580.36 486.42 1577.01 532.99 1512 532.99C1446.31 532.99 1397.53 499.84 1380.2 432C1357.03 341.34 1451.74 314.62 1431 216C1409.64 114.43 1360.63 31.61 1296 31.61C1234.07 31.61 1239.41 125.5 1177.88 216C1131.41 284.34 1135.12 349.28 1080 349.28C1015 349.28 1005.3 285.94 937.64 216C897.3 174.3 903.78 168.28 864 126" stroke="rgba(255, 103, 102, 0.3)" stroke-width="2"></path><path d="M132.39 432C132.39 368.88 152.15 330.25 216 291.89C301.96 240.25 323.28 257.51 432 252C539.28 246.56 561.26 223.23 648 270C728.17 313.23 765.82 371.83 765.82 432C765.82 468.64 706.79 447.37 648 463.61C539.88 493.47 541.79 514.19 432 524.2C325.79 533.89 315.51 533.63 216 503.01C165.71 487.53 132.39 474.44 132.39 432" stroke="rgba(255, 103, 102, 0.3)" stroke-width="2"></path><path d="M0 576C17.08 576 30.17 612 60.35 648C138.17 740.84 135.1 744.04 216 833.68C232.56 852.04 255.27 855.54 255.27 864C255.27 870.7 235.63 864 216 864C108 864 54 918 0 864C-54 810 0 756 0 648C0 612 -13.09 576 0 576" stroke="rgba(255, 103, 102, 0.3)" stroke-width="2"></path><path d="M760.84 648C788.01 547.93 785.26 498.22 864 461.19C944.84 423.17 992.71 446.97 1080 497.9C1152.8 540.37 1184.19 571.22 1184.19 648C1184.19 733.1 1136.74 738.49 1080 821.65C1063.05 846.49 1064.81 858.51 1036.8 864C956.81 879.68 950.4 864 864 864C809.32 864 771.96 900.29 754.63 864C720.38 792.29 733.33 749.33 760.84 648" stroke="rgba(255, 103, 102, 0.3)" stroke-width="2"></path><path d="M432 51.43C398.09 51.43 357.52 14.11 357.52 0C357.52 -11.61 394.76 0 432 0C454.04 0 476.08 -10.14 476.08 0C476.08 15.58 457.37 51.43 432 51.43" stroke="rgba(255, 103, 102, 0.3)" stroke-width="2"></path><path d="M1060.36 216C1060.36 195.31 1071.54 170.53 1080 170.53C1088.11 170.53 1093.5 194.44 1093.5 216C1093.5 226.37 1087.6 234.38 1080 234.38C1071.03 234.38 1060.36 227.24 1060.36 216" stroke="rgba(255, 103, 102, 0.3)" stroke-width="2"></path><path d="M1584 216C1584 198.48 1671 176.73 1728 176.73C1743 176.73 1728 196.37 1728 216C1728 231.16 1740.3 246.32 1728 246.32C1668.3 246.32 1584 233.27 1584 216" stroke="rgba(255, 103, 102, 0.3)" stroke-width="2"></path><path d="M235.64 432C235.64 412.32 338.34 380.57 432 380.57C473.76 380.57 506.48 411.24 506.48 432C506.48 450.12 470.61 458.34 432 458.34C335.19 458.34 235.64 451.21 235.64 432" stroke="rgba(255, 103, 102, 0.3)" stroke-width="2"></path><path d="M1471.73 432C1471.73 359.79 1492.02 273.6 1512 273.6C1531.96 273.6 1551.6 359.62 1551.6 432C1551.6 454.25 1531.86 462.86 1512 462.86C1491.93 462.86 1471.73 454.42 1471.73 432" stroke="rgba(255, 103, 102, 0.3)" stroke-width="2"></path><path d="M841.43 648C845.06 625.25 842.86 612.33 864 607.14C962.15 583.04 983.44 574.05 1080 589.42C1111.77 594.48 1120.66 618.04 1120.66 648C1120.66 681.21 1106.07 686.41 1080 715.76C1010.14 794.41 1011.49 807.25 928.8 864C903.49 881.37 896.4 864 864 864C843.49 864 824.79 881.18 822.99 864C813.5 773.18 824.56 753.68 841.43 648" stroke="rgba(255, 103, 102, 0.3)" stroke-width="2"></path><path d="M0 756C14.93 756 56.35 827.08 56.35 864C56.35 881.08 9.66 882.51 0 864C-18.51 828.51 -13.24 756 0 756" stroke="rgba(255, 103, 102, 0.3)" stroke-width="2"></path></g><defs><mask id="SvgjsMask1027"><rect width="1536" height="864" fill="#ffffff"></rect></mask></defs></svg>